<svg viewBox="0 0 17.008 17.008" fill="black" xmlns="http://www.w3.org/2000/svg">
<path d="m 9.6355291,16.790254 c -0.9698479,0 -1.9396958,0 -2.9095438,0 0.00311,-0.02798 0.00311,-0.05595
	0.00932,-0.08238 0.08393,-0.362139 0.1709669,-0.722723 0.2517875,-1.084862 0.1072427,-0.481815 0.2191483,-0.965185
	0.2222567,-1.457879 0.00466,-0.635686 -0.032638,-1.272926 -0.054399,-1.908612 -0.00466,-0.156977 -0.018652,-0.313956
	-0.027976,-0.474044 -0.228472,0.0171 -0.4305236,-0.0575 -0.6170329,-0.163192 C 6.2503869,11.473187 5.9985994,11.3131
	5.746812,11.151458 5.6939677,11.118819 5.6582201,11.114156 5.6038216,11.140579 5.3069611,11.286677 4.9914497,11.365944
	4.6603958,11.37527 3.8677317,11.397029 3.2071783,11.106386 2.6958321,10.50023 2.3026085,10.032403 2.1176536,9.4837552
	2.1347502,8.869829 2.1363045,8.83719 2.1129908,8.7952254 2.0881229,8.773466 1.4462204,8.1999502 1.1540227,7.483444
	1.2534942,6.6286101 1.3374234,5.9043327 1.6980079,5.3339253 2.2979458,4.917388 2.3476818,4.8831943 2.3632242,4.8474468
	2.364778,4.7883858 2.3694397,4.6065394 2.3709937,4.4246929 2.3974167,4.2475092 2.565275,3.1517675 3.5724248,2.2705115
	4.6806004,2.2440893 c 0.1336648,-0.00311 0.2688841,0 0.402549,0 C 5.3302741,1.1747698 5.9659597,0.45670937 7.066364,0.2608747
	8.1714311,0.06504003 9.0169396,0.52354185 9.619986,1.4514252 c 0.00311,0 0.00621,0.00155 0.00932,0 C 9.6635,1.4343292
	9.699247,1.4156772 9.7334409,1.3970262 10.067603,1.2182886 10.42508,1.1157086 10.801207,1.1172629 c 1.019583,0.00311
	1.774946,0.4616102 2.241219,1.3677342 0.07926,0.15387 0.160086,0.223811 0.334162,0.2595586 1.433011,0.2828723 2.283183,1.7702832
	1.813802,3.1551142 -0.02177,0.063724 -0.0171,0.1041348 0.02642,0.1569785 0.435188,0.536214 0.62636,1.1532487 0.533106,1.8371158
	-0.127448,0.9278833 -0.638795,1.5791114 -1.496737,1.9552382 -0.06061,0.026422 -0.07616,0.06217 -0.08393,0.1181225
	-0.206714,1.5200501 -1.792041,2.4759091 -3.23438,1.9459131 -0.188064,-0.06994 -0.365247,-0.169413 -0.553311,-0.258005
	0.0015,-0.0015 -0.0047,0.0031 -0.01083,0.0078 -0.320175,0.3295 -0.6403491,0.658999 -0.9574148,0.991608 -0.024868,0.02643
	-0.041964,0.06683 -0.046627,0.104133 -0.05129,0.35126 -0.1103513,0.700964 -0.1460989,1.053777 -0.024868,0.242462
	-0.045073,0.492696 -0.013988,0.733603 0.063724,0.481815 0.1616412,0.958968 0.2533416,1.437675 0.05129,0.268884
	0.1165683,0.537768 0.1756296,0.806652 z M 9.354211,9.9484741 c -0.1010257,0.046627 -0.1942804,0.08393 -0.2828723,0.1305559
	-0.031085,0.0171 -0.065278,0.05285 -0.073049,0.08704 -0.069941,0.298415 -0.1445446,0.595276 -0.1958346,0.896798
	-0.02953,0.17563 -0.034194,0.357478 -0.024868,0.536215 0.010878,0.181846 0.1305563,0.259559 0.2968604,0.211378
	C 9.41949,11.707885 9.6883741,11.482516 9.9588124,11.250933 9.6277582,10.874806 9.4288151,10.44739 9.3542114,9.9484772
	Z m -2.2707496,0.06217 c 0.166304,0.355923 0.3372708,0.704073 0.568853,1.016476 0.063725,0.08549 0.1367735,0.166304
	0.2160399,0.234691 0.1119056,0.09636 0.2067144,0.08393 0.2921978,-0.03885 0.049736,-0.06993 0.090147,-0.149208
	0.121231,-0.230028 0.093254,-0.240908 0.1414361,-0.49425 0.1771837,-0.758471 -0.4833697,0.0544 -0.9372087,-0.02331
	-1.3755054,-0.223812 z m -0.3465964,0.07305 c -0.160087,0.212931 -0.3170656,0.4212 -0.4755984,0.632578 0.2082686,0.136773
	0.4305254,0.268884 0.6854213,0.332607 0.079267,0.0202 0.1616414,0.0202 0.2642213,0.03109 C 7.043051,10.727151 6.8891809,10.403867
	6.736865,10.083694 Z"/>
</svg>
