<svg viewBox="0 0 12.756 12.756" fill="balck" xmlns="http://www.w3.org/2000/svg">
<path d="M 6.3714226,9.8008063 C 7.8809206,9.8018946 9.1248688,8.563388 9.1226922,7.0625966 9.1183389,5.550922
	7.8885388,4.3156803 6.3801292,4.3102387 c -1.512763,-0.00544 -2.7447397,1.2341534 -2.745828,2.7621528 0,1.4975264
	1.2319767,2.7262382 2.7371214,2.7284148 z"/>
<path d="M 10.285016,7.0723915 C 10.299165,4.9207855 8.5404417,3.153356 6.3812175,3.150091
	4.2252582,3.1468261 2.486125,4.8783411 2.4708886,7.0430069 2.4545638,9.2000544
	4.2024035,10.958777 6.369246,10.965307 c 2.1494293,0.0076 3.902711,-1.7347797
	3.91577,-3.8929155 z M 6.2244996,0.11803527 c 0.6040169,0 1.2080337,0.001088 1.8120506,0.003265
	0.1665127,0.15236461 0.3308488,0.30690586 0.4962733,0.46035879 0.2231053,0.20895718
	0.4462106,0.41791436 0.6736692,0.62251824 0.1773959,0.1599828 0.4331508,0.2633731
	0.6845524,0.2764329 0.1828379,0.00979 0.3678519,0.010883 0.5517779,0.010883 0.293846,0.00109
	0.572455,0.00327 0.826034,0.042444 0.749851,0.1164501 1.362575,0.8369171 1.365839,1.60527
	0.0098,2.3845062 0.0087,5.4633597 -0.0033,7.8478658 -0.0044,0.871743 -0.767265,1.641184
	-1.628125,1.647714 l -9.1059624,0.0044 C 1.1311683,12.636965 0.61312863,12.311557
	0.26595498,11.616122 0.16582966,11.415871 0.115767,11.190589 0.115767,10.944629 c 0,-2.3496797
	0,-5.3947953 0.004353,-7.7455636 0.002177,-0.8369171 0.59748722,-1.5301761 1.4344043,-1.6847173
	0.1349515,-0.016325 0.812974,-0.02612 1.3723698,-0.033738 C 3.1957088,1.4773453
	3.476495,1.3489237 3.6582442,1.1475847 3.9629734,0.80911761 4.2622611,0.4641206
	4.5571954,0.11585863 c 0.5561309,0.002177 1.1111734,0.002177 1.6673042,0.002177 z"/>
</svg>
