<svg viewBox="0 0 17.008 17.008" fill="black" xmlns="http://www.w3.org/2000/svg">
<path d="m 10.525755,10.131973 c 0.05727,0.666595 0.111364,1.29819 0.165455,1.929785
	0.0875,1.008643 0.176592,2.018877 0.264093,3.02752 0.0095,0.117728 0.05091,0.19091
	0.168637,0.24341 0.504322,0.225911 0.952961,0.53614 1.355464,0.917961 0.04773,0.04614
	0.130455,0.07477 0.198865,0.07636 0.326138,0.008 0.652276,0.0032 0.978415,0.0048 0.202047,0
	0.324547,0.101818 0.321366,0.264092 -0.0032,0.151138 -0.127274,0.249775 -0.319775,0.249775
	-1.934558,0 -3.8691159,0 -5.8036738,0 -1.4731912,0 -2.9447916,0 -4.4179828,0 -0.038182,0
	-0.076364,0.0016 -0.1145462,0 -0.1765921,-0.0064 -0.2927292,-0.112956 -0.2911383,-0.264093
	0.00159,-0.13841 0.1209099,-0.248183 0.2879564,-0.249774 0.3372749,-0.0032 0.6745498,0.0032
	1.0102338,-0.0032 0.06841,-0.0016 0.1527282,-0.02864 0.1988649,-0.07477 0.4056844,-0.394548
	0.867051,-0.704778 1.3825089,-0.932279 0.093864,-0.04136 0.1320463,-0.09864 0.1384099,-0.194092
	0.00795,-0.124092 0.035,-0.249775 0.027046,-0.372275 -0.015909,-0.256138 0.1002279,-0.43114
	0.2800018,-0.602959 0.945006,-0.905233 1.8788756,-1.821602 2.817518,-2.733199
	0.4168209,-0.404094 0.8384144,-0.805005 1.2584164,-1.205917 0.02227,-0.02068 0.04614,-0.03977
	0.09387,-0.08114 z"/>
<path d="m 10.058024,5.3783063 c 0.100228,0 0.170229,-0.00159 0.238638,0 0.173411,0.00636
	0.292729,0.117728 0.287957,0.2656835 -0.0032,0.1400009 -0.119319,0.2465925 -0.289548,0.2465925
	-0.5361394,0.00477 -1.0738701,0.00318 -1.6116008,0.00318 -0.6459133,0 -1.2918265,0
	-1.9377397,-0.00159 -0.2084104,0 -0.3261385,-0.095455 -0.3261385,-0.256138 0,-0.157501
	0.1256827,-0.256138 0.3277294,-0.2577289 0.058864,0 0.1161371,0 0.1893194,0 0,-0.6984136
	0,-1.379327 0,-2.0745588 1.0436431,0 2.0713769,0 3.1197932,0 0.0016,0.6793226 0.0016,1.3650088
	0.0016,2.0745588 z M 8.5084691,3.8717057 C 8.2061944,3.8732966 7.977102,4.0960253
	7.9786929,4.3871636 7.9818748,4.6910291 8.2109672,4.9089851 8.5243783,4.9073942
	8.7996073,4.9042123 9.0271087,4.673529 9.0271087,4.3967091 9.0286997,4.0944344
	8.805971,3.8701148 8.5084691,3.8717057 Z"/>
<path d="m 6.1873178,13.577904 c 0.015909,-0.219547 0.023864,-0.394548 0.039773,-0.57114
	0.039773,-0.442275 0.079546,-0.884551 0.1288645,-1.325235 0.00955,-0.08273 0.047728,-0.178183
	0.1065916,-0.235457 0.9625061,-0.938642 1.9297851,-1.8741025 2.897064,-2.8079721
	0.2847745,-0.275229 0.57114,-0.5488671 0.8575051,-0.8209143 0.02227,-0.020682 0.04932,-0.038182
	0.09705,-0.076364 0.03023,0.3500023 0.05886,0.6761407 0.0875,1.0022792 0.01591,0.1781829
	0.04614,0.354775 0.04773,0.5329579 0.0016,0.081137 -0.02705,0.1877285 -0.08114,0.2418198
	-0.9943248,0.9784155 -1.9934222,1.9488755 -2.9925195,2.9225185 -0.3388658,0.32932
	-0.6777316,0.65705 -1.0165974,0.984779 -0.044546,0.04455 -0.093864,0.08432 -0.1718193,0.152728 z"/>
<path d="m 6.4418649,10.71425 c 0.030228,-0.381821 0.057273,-0.7190959 0.08591,-1.0547799
	0.023864,-0.2863655 0.046137,-0.572731 0.081137,-0.8575055 0.00795,-0.071591
	0.044546,-0.1559101 0.095455,-0.2052286 0.7429593,-0.7063682 1.4891004,-1.4079636
	2.2368325,-2.1079681 0.035,-0.033409 0.090682,-0.063637 0.13841,-0.065228 0.3627296,-0.00477
	0.7270501,-0.00318 1.1152346,-0.00318 0.0175,0.197274 0.03977,0.3881843 0.04614,0.5806856
	0.0016,0.042955 -0.04932,0.093864 -0.0875,0.1288644 C 9.2339283,8.0208232 8.312786,8.9085562
	7.3916437,9.7978801 7.1227784,10.058791 6.8570948,10.322883 6.5882295,10.583794 c -0.035,0.035
	-0.074773,0.06841 -0.1463646,0.130456 z"/>
<path d="M 6.9573228,2.2473771 C 7.0989146,1.5171452 7.5523266,1.1273699 8.2475583,0.95395974 c
	0,-0.16068285 -0.00159,-0.32772938 0,-0.4947759 0.00159,-0.17500112 0.1065916,-0.29750191
	0.2529562,-0.29909283 0.1511373,-0.001591 0.256138,0.11136435 0.2593198,0.28954731
	0.00318,0.16704653 0,0.33568397 0,0.50750326 C 9.0987001,1.0350966 9.396202,1.165552
	9.6348399,1.4105536 9.830523,1.6094185 9.968933,1.8401018 10.01507,2.1137399 c
	0.02068,0.1161371 0.07159,0.1431827 0.17341,0.1320463 0.04773,-0.00477 0.09864,-0.00318
	0.146364,0.00159 0.144774,0.015909 0.238638,0.093864 0.249775,0.237047 0.0095,0.1431827
	-0.07318,0.2338651 -0.210002,0.2688654 -0.04773,0.011136 -0.09864,0.00955 -0.146364,0.00955
	-1.1502348,0 -2.3004695,0.00159 -3.4507041,-0.00477 -0.092273,0 -0.2052286,-0.023864
	-0.2672745,-0.081137 -0.055682,-0.049319 -0.092273,-0.1781829 -0.065228,-0.2418197
	0.033409,-0.077955 0.1320463,-0.1495464 0.217956,-0.1813648 0.08591,-0.030228
	0.1909103,-0.00636 0.2943201,-0.00636 z"/>
<path d="m 6.6868665,7.8760496 c 0.046137,-0.5106851 0.0875,-0.9736426 0.1304554,-1.4461457
	0.4629575,0 0.9179604,0 1.4063726,0 -0.512276,0.4820486 -1.0070519,0.9481879
	-1.536828,1.4461457 z"/>
<path d="m 12.181902,2.7978352 c 0.07159,0.06841 0.165455,0.1272735 0.211592,0.2100013
	0.06045,0.1081826 0.0048,0.2195469 -0.09386,0.2800018 -0.240229,0.1479555 -0.485231,0.2879564
	-0.731823,0.4215936 -0.125683,0.06841 -0.235456,0.015909 -0.310229,-0.092273
	-0.07318,-0.1065916 -0.07,-0.2418197 0.03182,-0.3102292 0.256138,-0.1702284 0.529776,-0.316593
	0.797051,-0.4693212 0.0175,-0.00955 0.04295,-0.00477 0.06364,-0.00636 0.0095,-0.011136
	0.02068,-0.022273 0.03182,-0.033409 z"/>
<path d="m 11.513716,5.0505769 c 0.01432,0.00477 0.05886,0.011136 0.09386,0.031818
	0.22591,0.1272735 0.451821,0.2545471 0.672959,0.3897752 0.13841,0.084319 0.17341,0.2227287
	0.101819,0.3468204 -0.06841,0.119319 -0.221138,0.1670465 -0.350003,0.095455 C
	11.801668,5.785581 11.566212,5.6614893 11.351438,5.5087611 11.283028,5.4594421
	11.235301,5.3273963 11.241664,5.2367139 c 0.0064,-0.119319 0.111365,-0.1877285
	0.272048,-0.1861376 z"/>
<path d="m 4.8270818,2.7898806 c 0.3404568,0.1877285 0.6761407,0.3165929 0.925915,0.5775037
	0.042955,0.044546 0.015909,0.2084104 -0.035,0.2736381 C 5.67186,3.6998864 5.5270863,3.7444322
	5.4650405,3.7142047 5.197766,3.5853402 4.9368553,3.4389757 4.6902628,3.2719291
	4.6298078,3.2305652 4.5963985,3.0810188 4.6186714,2.9998819 4.6393533,2.9219269
	4.7459449,2.8662447 4.8270818,2.7898806 Z"/>
<path d="M 4.7936725,5.9637646 C 4.7427631,5.9144461 4.6377624,5.857173 4.6154896,5.7760361
	4.5948076,5.6964901 4.626626,5.5485346 4.6870809,5.5071707 4.9273097,5.3417151
	5.1834477,5.1985324 5.4427676,5.0648952 5.5509501,5.009213 5.6670872,5.048986
	5.7402695,5.1603503 5.8134518,5.2701238 5.8118609,5.4005792 5.710042,5.4673978
	5.4443585,5.640808 5.1627658,5.7903544 4.8875368,5.9478554 c -0.014318,0.00795
	-0.031818,0.00636 -0.093864,0.015909 z"/>
<path d="m 4.6918537,4.6321651 c -0.1240917,0 -0.2481834,0.00318 -0.3722751,0 C
	4.1811686,4.6273924 4.0857134,4.5351191 4.074577,4.4014818 4.0650315,4.2742083
	4.154123,4.1485257 4.2893511,4.142162 4.5693529,4.129435 4.8509456,4.127844 5.1325383,4.135802
	5.277312,4.140572 5.3743581,4.2630756 5.3695853,4.3951219 5.3648153,4.53035 5.2645846,4.6258052
	5.1150382,4.6337598 c -0.07,0.00318 -0.1400009,0 -0.2115923,0 -0.07,0 -0.1400008,0 -0.2115922,0
	0,0 0,-0.00159 0,-0.00159 z"/>
<path d="m 12.285311,4.6305742 c -0.135228,0 -0.270456,0.00318 -0.405684,-0.00159
	-0.136819,-0.00477 -0.238638,-0.1034098 -0.240229,-0.2338651 -0.0016,-0.1352282 0.07,-0.2450016
	0.202047,-0.2513653 0.291138,-0.015909 0.583867,-0.014318 0.875006,-0.00318 0.146364,0.00636
	0.214774,0.1193189 0.214774,0.2593198 0.0016,0.1368191 -0.10341,0.2275015 -0.257729,0.2322742
	-0.128865,0.00318 -0.25932,0 -0.388185,0 0,0 0,0 0,-0.00159 z"/>
</svg>
