<svg viewBox="0 0 17.008 17.008" fill="black" xmlns="http://www.w3.org/2000/svg">
<path d="m 0.1022159,2.8051064 c 1.5924993,0 3.1863458,-0.00135 4.7788451,-0.00135 2.2284211,0
	4.4554949,0 6.683916,0 1.739354,0 3.478708,0 5.218062,0 0.03638,0 0.0741,0 0.115867,0
	0,0.226345 0,0.4459536 0,0.673646 -0.332781,0 -0.660173,0 -0.995648,0 0,0.336823 0,0.6655623
	0,1.0023853 0.330086,0 0.657478,0 0.994301,0 0,0.6763407 0,1.3432503 0,2.0236328 -0.109131,0
	-0.219608,-0.00135 -0.330086,0 -0.468858,0.00539 -0.864962,0.3179609 -0.97544,0.7746929
	-0.02021,0.083532 -0.02964,0.1724534 -0.02964,0.2586801 -0.0013,1.4941469 -0.0013,2.9869465
	-0.0013,4.4810935 0,0.04311 0,0.08488 0,0.133382 0.301794,0.03638 0.590114,0.05389
	0.87574,-0.04446 0.19401,-0.06602 0.371853,0.01213 0.443259,0.183232 0.07545,0.181884
	-0.01751,0.377241 -0.212872,0.449995 -0.307182,0.11452 -0.626491,0.127993 -0.947146,0.106436
	-0.468858,-0.03233 -0.921548,-0.140118 -1.347292,-0.343559 -0.08623,-0.04177
	-0.169759,-0.123951 -0.255986,-0.123951 -0.08488,0 -0.168411,0.08353 -0.255985,0.123951
	-0.832627,0.379936 -1.690852,0.451343 -2.576023,0.222303 -0.286973,-0.0741 -0.561821,-0.17919
	-0.819153,-0.331434 -0.02425,-0.01482 -0.07275,-0.01212 -0.09835,0.0013 -0.8178059,0.448649
	-1.6841147,0.557779 -2.5921896,0.374548 -0.3529905,-0.07141 -0.6884663,-0.189968
	-1.001038,-0.371853 -0.026946,-0.01617 -0.078143,-0.01482 -0.1050888,0 -0.6615204,0.369158
	-1.3728907,0.50254 -2.1233324,0.440565 -0.5200547,-0.04311 -1.0145109,-0.180538
	-1.4698956,-0.44326 -0.026946,-0.01482 -0.078143,-0.01212 -0.1064361,0.004 -0.6507421,0.362422
	-1.3486394,0.493109 -2.08560819,0.443259 -0.10913066,-0.0067 -0.21826132,-0.01078
	-0.32604469,-0.02156 -0.19805193,-0.01886 -0.33547573,-0.171106 -0.32200281,-0.352991
	0.0134729,-0.188621 0.16975881,-0.326044 0.36915804,-0.317961 0.23038695,0.0081
	0.45942665,0.02021 0.68981355,0.02829 0.045808,0.0013 0.091616,-0.0067 0.152244,-0.01078
	0,-0.04177 0,-0.07814 0,-0.113172 0,-1.508968 0.00135,-3.0179344 0,-4.5269015 C
	1.4455144,6.9479299 1.0009107,6.5087126 0.42022783,6.506018 c -0.10508878,0
	-0.21152486,-0.00135 -0.31661364,-0.00135 0,-0.6722988 0,-1.3445976 0,-2.0168963 0.33412844,0
	0.66825688,0 1.00103801,0 0,-0.3435595 0,-0.6709515 0,-1.0077745 -0.3381703,0 -0.66960416,0
	-1.00103801,0 C 0.1022159,3.2537546 0.1022159,3.0287568 0.1022159,2.8051064 Z m
	4.367921,9.3542486 c 0.2546382,0 0.4944562,0.01751 0.7315796,-0.004 0.4742468,-0.04177
	0.9202005,-0.175148 1.3068733,-0.470205 0.1374238,-0.103742 0.2775422,-0.101047
	0.4230497,-0.0027 0.068712,0.04716 0.1360765,0.09835 0.2088303,0.140118 0.3556851,0.207483
	0.7463998,0.307183 1.153282,0.338171 0.6884663,0.05254 1.3378611,-0.06198 1.9104602,-0.476942
	0.140118,-0.102394 0.278889,-0.101047 0.42305,-0.0027 0.0741,0.0512 0.146855,0.105088
	0.224998,0.149549 0.397451,0.226345 0.833973,0.315266 1.285316,0.342212 0.12934,0.0081
	0.25868,0.0013 0.397451,0.0013 0,-0.05524 0,-0.08892 0,-0.122604 0,-1.511662 0.0013,-3.0233235
	-0.0013,-4.5349852 -0.0013,-0.5793356 -0.445954,-1.0145109 -1.030678,-1.0158582
	-2.0007292,-0.00135 -4.0001106,-0.00135 -6.0008394,0 -0.5981977,0 -1.033373,0.4419118
	-1.033373,1.0414568 0,1.480674 0,2.9613476 0,4.4420216 0.00135,0.05524 0.00135,0.106436
	0.00135,0.175148 z M 3.4583205,3.4868362 c -0.5618208,0 -1.1155578,0 -1.6679476,0 0,0.336823
	0,0.664215 0,0.9916069 0.5591262,0 1.111516,0 1.6679476,0 0,-0.3327811 0,-0.6588258
	0,-0.9916069 z m 0.6844244,-0.00674 c 0,0.3395176 0,0.6696042 0,0.9983434 0.5604735,0
	1.111516,0 1.6639057,0 0,-0.336823 0,-0.6669095 0,-0.9983434 -0.5564316,0 -1.1061268,0
	-1.6639057,0 z m 2.3496774,0.00269 c 0,0.336823 0,0.664215 0,0.9956488 0.5591262,0 1.1142106,0
	1.6692949,0 0,-0.3354757 0,-0.6628677 0,-0.9956488 -0.5564316,0 -1.1088214,0 -1.6692949,0 z m
	2.3550666,-0.00269 c 0,0.3395176 0,0.6696042 0,0.9996907 0.5591262,0 1.111516,0 1.6652531,0
	0,-0.336823 0,-0.6669096 0,-0.9996907 -0.557779,0 -1.1088215,0 -1.6652531,0 z m
	4.0203201,0.00539 c -0.563169,0 -1.116906,0 -1.670643,0 0,0.3354757 0,0.6628677 0,0.9929542
	0.559127,0 1.112864,0 1.670643,0 0,-0.3341284 0,-0.6601731 0,-0.9929542 z m 0.680382,0.9916069
	c 0.561821,0 1.116905,0 1.667948,0 0,-0.336823 0,-0.664215 0,-0.9929542 -0.560474,0 -1.111516,0
	-1.667948,0 0,0.3327811 0,0.6588258 0,0.9929542 z"/>
<path d="m 15.930203,14.197808 c -0.623796,-0.01886 -1.220646,-0.145507 -1.767647,-0.460774
	-0.02425,-0.01482 -0.07141,-0.01212 -0.09835,0.0013 -1.197743,0.619754 -2.394138,0.619754
	-3.593228,0.0013 -0.02829,-0.01482 -0.07814,-0.01617 -0.105089,0 -0.6642149,0.370505
	-1.3782797,0.50254 -2.131416,0.439217 -0.5214021,-0.04446 -1.014511,-0.180537
	-1.4698957,-0.444606 -0.022904,-0.01347 -0.066017,-0.01078 -0.090269,0.0027 -0.6305327,0.359727
	-1.3122625,0.493109 -2.0290219,0.452691 -0.5483478,-0.03099 -1.0751391,-0.163023
	-1.5534277,-0.445954 -0.048503,-0.02829 -0.083532,-0.02829 -0.133382,0 -0.4365226,0.255985
	-0.913464,0.396104 -1.4146567,0.428439 -0.3246974,0.02021 -0.65208934,0.0027
	-0.97678673,-0.01078 -0.2047884,-0.0081 -0.33817032,-0.160327 -0.33008657,-0.344906
	0.008084,-0.191316 0.16302235,-0.330087 0.37185262,-0.32335 0.18053714,0.0054
	0.35972699,0.02694 0.54026418,0.02694 0.4796359,0.0027 0.9404098,-0.08488 1.370196,-0.304488
	0.1023942,-0.05254 0.1953574,-0.121256 0.2896678,-0.185926 0.1414657,-0.09566
	0.2829314,-0.109131 0.4163133,-0.0081 0.4095768,0.311225 0.8797817,0.439218 1.3796271,0.485025
	0.5564316,0.0512 1.0913066,-0.03772 1.5951938,-0.284278 0.1050888,-0.0512 0.2020938,-0.121256
	0.2990989,-0.188621 0.1482021,-0.102394 0.2923624,-0.113173 0.4324807,-0.0054
	0.3705054,0.285626 0.8002915,0.409577 1.2516344,0.468857 0.5146656,0.06871 1.0199001,0.0081
	1.5022307,-0.181884 0.1764952,-0.07006 0.3422128,-0.175148 0.5038878,-0.277542 0.156286,-0.0997
	0.296404,-0.118562 0.440564,-0.0081 0.324698,0.249249 0.699245,0.375895 1.095349,0.443259
	0.67634,0.11452 1.325735,0.03233 1.937406,-0.285626 0.08219,-0.04311 0.157633,-0.0997
	0.233081,-0.153591 0.150897,-0.105089 0.292363,-0.109131 0.439218,0.0027 0.385325,0.292362
	0.831279,0.412271 1.300136,0.46751 0.285626,0.03368 0.568558,0.02829 0.847447,-0.06467
	0.176495,-0.05793 0.347602,0.04716 0.405535,0.222303 0.05524,0.167064 -0.03099,0.347601
	-0.207483,0.414966 -0.239818,0.09431 -0.493109,0.125298 -0.750442,0.121256 z"/>
</svg>
