<svg viewBox="0 0 17.008 17.008" fill="black" xmlns="http://www.w3.org/2000/svg">
<path d="m 0.14890959,16.04938 c 0.0916988,-0.273568 0.0916988,-0.279682 0.39277651,-0.282738
	1.0958006,-0.0107 2.1916012,-0.0214 3.2874018,-0.02445 2.0861476,-0.0046 4.1738235,-0.0076
	6.2599711,-0.0046 2.104487,0.0031 4.210503,0.01528 6.31499,0.02293 0.07183,0 0.142133,0.0046
	0.213964,0.0076 0.105454,0.0046 0.171171,0.04738 0.195624,0.149775 0.0596,0.247587
	0.0596,0.496702 0,0.744288 -0.02598,0.105454 -0.0917,0.149775 -0.204794,0.149775
	-0.748873,0.0092 -1.497747,0.02293 -2.24662,0.02445 -3.525819,0.0046 -7.0516375,0.0076
	-10.5789845,0.0061 -1.1110837,0 -2.2221675,-0.01834 -3.3332512,-0.02904 -0.19868072,-0.0015
	-0.24605843,-0.04585 -0.28426626,-0.241473 -0.003057,-0.01375 -0.0106982,-0.02751
	-0.0152831,-0.04126 -0.001528,-0.160472 -0.001528,-0.320945 -0.001528,-0.481418 z"/>
<path d="m 8.4904433,5.1005437 c -2.4300181,0 -4.8615644,0 -7.2915825,0 -0.22619037,0
	-0.45238073,-0.00764 -0.67857109,-0.012227 C 0.3919114,5.0852605 0.29104272,5.0119015
	0.26047646,4.9033912 0.22991019,4.7872394 0.27423128,4.6878991 0.39802465,4.619125
	1.5962222,3.9451388 2.7928915,3.2696244 3.9941457,2.6017515 5.3726843,1.8345382
	6.7573361,1.0749666 8.1389313,0.31233825 8.4934999,0.11671415 8.4965566,0.11518584
	8.8511252,0.30928162 10.53227,1.2354394 12.213414,2.160069 13.891502,3.0892834 c
	0.872667,0.4844753 1.739221,0.9765922 2.607303,1.4656524 0.03515,0.019868 0.0703,0.039736
	0.103925,0.061133 0.122265,0.074887 0.166586,0.1620012 0.139077,0.273568 -0.02904,0.1146235
	-0.13602,0.1956241 -0.27204,0.1971524 -0.401947,0.00611 -0.805421,0.016812 -1.207368,0.016812
	-2.257318,0.00306 -4.514637,0.00153 -6.7719557,0.00153 0,-0.00153 0,-0.00306 0,-0.00458 z M
	8.5255945,4.0888003 C 8.8022192,4.1239515 9.0681457,4.0261394 9.3126758,3.8366286
	9.8078493,3.453022 9.982077,2.8019605 9.732962,2.2288431 9.4899602,1.6694804
	8.8908614,1.3485346 8.2825927,1.4509316 7.59638,1.5655551 7.1149614,2.1707672 7.1562258,2.83864
	7.195962,3.4683051 7.7369849,4.1499328 8.5255945,4.0888003 Z"/>
<path d="m 2.0623578,7.0017653 c 0.9215729,0 1.8278626,0 2.7494355,0 0,0.039736 0,0.074887
	0,0.1115669 0,2.209941 0,4.4214098 0.00153,6.6313508 0,0.09017 -0.025981,0.113096
	-0.1146235,0.111567 -0.8421006,-0.0031 -1.6842012,-0.0031 -2.5263018,0 -0.088642,0
	-0.1130951,-0.02292 -0.1130951,-0.113095 0.00306,-2.212998 0.00153,-4.4275234 0.00153,-6.640521
	0.00153,-0.030566 0.00153,-0.061133 0.00153,-0.1008687 z"/>
<path d="m 12.19049,7.0017653 c 0.921573,0 1.827862,0 2.749435,0 0,0.042793 0,0.081001
	0,0.1207368 0,2.0433548 0,4.0867099 0,6.1300649 0,0.172699 -0.0015,0.346927 0.0015,0.519626
	0.0015,0.06725 -0.02293,0.08406 -0.08559,0.08406 -0.86044,-0.0015 -1.720881,-0.0015 -2.581321,0
	-0.07489,0 -0.08406,-0.03057 -0.08406,-0.09323 0.0015,-1.198197 0,-2.396395 0,-3.594593
	0,-1.0147996 0,-2.0311279 0,-3.0459279 0,-0.038208 0,-0.074887 0,-0.1207368 z"/>
<path d="m 7.1485843,7.0032936 c 0.9062897,0 1.8018813,0 2.7051144,0 0,2.2817717 0,4.5589584
	0,6.8437864 -0.9017048,0 -1.800353,0 -2.7051144,0 0,-2.280243 0,-4.5574297 0,-6.8437864 z"/>
<path d="m 8.4965566,15.349412 c -2.3811121,0 -4.7622241,0 -7.1433362,0 -0.1895108,0
	-0.3087192,-0.10851 -0.3133042,-0.298021 -0.00458,-0.172699 -0.00458,-0.346927 0,-0.519626
	0.00459,-0.183398 0.1237934,-0.291908 0.307191,-0.291908 4.7683373,0 9.5366748,0 14.3050118,0
	0.184926,0 0.302606,0.10851 0.307191,0.291908 0.0046,0.175756 0.0046,0.35304 0,0.528796
	-0.0061,0.178813 -0.125322,0.288851 -0.302606,0.288851 -2.385697,0 -4.772922,0 -7.1601474,0 z"/>
<path d="m 8.4950282,6.5799509 c -2.4116783,0 -4.8248849,0 -7.2365632,0 -0.09934,0
	-0.1742277,-0.050434 -0.1971524,-0.155888 C 1.0108783,6.190231 0.99712344,5.9518141
	1.0429728,5.7149256 1.0689542,5.580434 1.1361999,5.5361129 1.2936162,5.531528
	1.7230722,5.522358 2.1540566,5.510132 2.5850409,5.510132 c 3.322553,-0.00458 6.645106,-0.00764
	9.9676591,-0.00917 0.947554,0 1.895108,0.00917 2.842663,0.015283 0.11768,0.00153
	0.23536,0.012226 0.35304,0.015283 0.103925,0.00306 0.171171,0.053491 0.195624,0.151303
	0.06419,0.2506434 0.05655,0.5043434 -0.0061,0.7534584 -0.02751,0.1085103 -0.09476,0.1436615
	-0.206323,0.1436615 -2.413206,0 -4.824884,0 -7.2365628,0 0,0 0,0 0,0 z"/>
</svg>
