<svg viewBox="0 0 17.01 17.01" fill="black" xmlns="http://www.w3.org/2000/svg">
<path d="m 0.22759719,15.971048 c 0.090849,-0.272547 0.090849,-0.272547 0.39367911,-0.272547
	1.0901883,-0.01514 2.1652351,-0.01514 3.2554234,-0.03028 2.0743861,0 4.1336307,-0.01514
	6.2080163,0 2.089528,0 4.163914,0.01514 6.253442,0.03028 0.07571,0 0.136273,0 0.211981,0.01514
	0.10599,0 0.166556,0.04542 0.196839,0.151415 0.06057,0.242264 0.06057,0.499669 0,0.741933
	-0.03028,0.105991 -0.09085,0.151415 -0.196839,0.151415 -0.741934,0.01514 -1.483868,0.03028
	-2.225801,0.03028 -3.497688,0 -6.9802338,0.01514 -10.4779213,0 -1.1053298,0 -2.1955181,-0.01514
	-3.30084792,-0.03028 -0.19683956,0 -0.24226407,-0.04542 -0.28768858,-0.242264 0,-0.01514
	-0.0151415,-0.03028 -0.0151415,-0.04542 C 0.2275972,16.289022 0.2275972,16.137607
	0.2275972,15.97105 Z"/>
<path d="m 8.4948585,15.274539 c -2.3620747,0 -4.7241493,0 -7.0710825,0 -0.181698,0
	-0.3028301,-0.10599 -0.3028301,-0.287689 0,-0.166556 0,-0.348254 0,-0.514811 0,-0.181698
	0.1211321,-0.287688 0.3028301,-0.287688 4.7241493,0 9.448299,0 14.172448,0 0.181698,0
	0.30283,0.10599 0.30283,0.287688 0,0.181698 0,0.348255 0,0.529953 0,0.181698 -0.121132,0.287689
	-0.30283,0.287689 -2.377216,-0.01514 -4.739291,-0.01514 -7.1013655,-0.01514 z"/>
<path d="m 3.8918412,5.6142594 c 0.045425,0 0.090849,0 0.121132,0 v 7.9341486 h 1.589858 V
	4.9934577 C 6.0116518,4.6603446 6.3144819,4.2060995 6.4658969,3.6912883 V 13.548408 H 8.0406134
	V 3.4338828 H 8.9036791 V 13.548408 H 10.493537 V 3.6912883 c 0.151415,0.5148112
	0.454245,0.9690563 0.863066,1.3021694 v 8.5549503 h 1.589858 V 5.5991179 c 0.04542,0 0.09085,0
	0.121132,0 1.483867,0 2.680046,-1.1961789 2.680046,-2.6800463 0,-1.4838674
	-1.196179,-2.68004622 -2.680046,-2.68004622 0,0 0,0 -0.01514,0 H 3.8918412 c 0,0 0,0 0,0
	-1.4838674,0 -2.6800462,1.19617882 -2.6800462,2.68004622 C 1.196654,4.402939
	2.4079738,5.6142594 3.8918412,5.6142594 Z M 13.067593,1.3897797 v 0 c 0.863066,0
	1.544433,0.6965092 1.544433,1.5292919 0,0.8479243 -0.681367,1.529292 -1.529292,1.529292
	-0.847924,0 -1.529292,-0.6965092 -1.529292,-1.529292 -0.01514,-0.8479242 0.666227,-1.5292919
	1.514151,-1.5292919 z m -2.195518,0 c -0.19684,0.2574056 -0.333113,0.5602357
	-0.408821,0.8933488 H 6.4961799 C 6.4204724,1.9500154 6.2841989,1.6471853 6.0873593,1.3897797 Z
	m -6.9802338,0 v 0 0 c 0.8479242,0 1.5444334,0.6965092 1.5444334,1.5292919 0,0.8479243
	-0.6813676,1.529292 -1.5292919,1.529292 -0.8479242,0 -1.5292919,-0.6965092 -1.5292919,-1.529292
	C 2.3474078,2.0711474 3.043917,1.3897797 3.8918412,1.3897797 Z"/>
</svg>
