<svg viewBox="0 0 17.008 17.008" fill="black" xmlns="http://www.w3.org/2000/svg">
<path d="m 1.9451184,16.814499 c -0.092829,-0.0135 -0.187346,-0.02532 -0.2903018,-0.04051
	0,-0.15359 0,-0.30718 0,-0.477647 0.2396677,-0.02532 0.4776477,-0.04895 0.7561349,-0.07764
	-0.065824,-0.06414 -0.1080193,-0.114771 -0.1586533,-0.155278 -0.5468476,-0.430389
	-0.79833,-1.02112 -0.9114127,-1.686113 -0.03038,-0.182283 -0.020254,-0.194098
	0.1670923,-0.190722 1.2371583,0.02025 2.4743166,0.05063 3.709787,0.06076 0.5451598,0.0051
	1.0903196,-0.02701 1.6354794,-0.04895 1.664172,-0.06751 3.3013388,-0.318995 4.9148768,-0.72913
	1.206778,-0.305492 2.359546,-0.746009 3.421173,-1.404251 0.320682,-0.199161 0.320682,-0.197473
	0.49115,0.140088 0,0.194097 0,0.389882 0,0.583979 -0.01181,0.03376 -0.027,0.06751
	-0.03376,0.102956 -0.210975,1.142641 -0.616047,2.199205 -1.35868,3.108929 -0.02869,0.03544
	-0.0557,0.07595 -0.09958,0.136712 0.185658,0.03544 0.347687,0.07258 0.511404,0.09789
	0.16878,0.02701 0.33756,0.04557 0.519843,0.0692 0,0.09283 -0.0017,0.172155 0,0.25317
	0.0017,0.08608 0.0034,0.172155 0.0068,0.258233 -0.09789,0 -0.194097,0 -0.29199,0
	-0.03038,-0.01013 -0.05907,-0.027 -0.08945,-0.02869 -0.501277,-0.03544 -0.965422,-0.183971
	-1.382309,-0.464146 -0.102956,-0.0692 -0.173844,-0.06076 -0.273424,0.0017 -0.995803,0.627862
	-1.994981,0.607609 -2.989096,-0.0017 -0.0962,-0.05907 -0.156966,-0.06076 -0.2582337,0
	-0.950232,0.582292 -1.9190299,0.627862 -2.8895156,0.05739 -0.1637167,-0.09621
	-0.2784872,-0.111395 -0.4472673,-0.01519 -0.9806125,0.562038 -1.9578494,0.575541
	-2.919896,-0.05401 -0.081014,-0.05401 -0.1383997,-0.03713 -0.2194142,-0.0034
	-0.3459992,0.148527 -0.6953741,0.290302 -1.0481245,0.423638 -0.1181461,0.04557
	-0.2497946,0.0557 -0.3746919,0.0827 -0.033756,0 -0.065824,0 -0.097892,0 z"/>
<path d="m 8.4954747,1.1196353 c 0.087766,0.010127 0.1417753,0.00844 0.1924094,0.023629
	1.3451779,0.3831308 2.5941499,0.9569832 3.6777189,1.8582691 1.414377,1.1747096
	2.298785,2.6785404 2.752804,4.4473561 0.258233,1.0042417 0.378067,2.0236736 0.329121,3.0616715
	-0.01519,0.329121 -0.01182,0.339248 -0.339248,0.330809 -2.21102,-0.06076 -4.11486,0.749384
	-5.8381045,2.065869 -0.1670923,0.128273 -0.3324969,0.259921 -0.4979014,0.388194 -0.00338,0.0017
	-0.010127,0 -0.00506,0 C 9.6549941,9.2261444 9.4288288,5.180485 8.4954747,1.1196353 Z"/>
<path d="m 8.0583342,3.3407817 c 0.092829,0.5637256 0.2109752,1.1240756 0.2734238,1.689489
	0.077639,0.7021253 0.1316485,1.4076262 0.1569655,2.1131271 0.023629,0.6683692 0.00506,1.3401141
	-0.00675,2.0084834 -0.021941,1.1612068 -0.2042239,2.3055368 -0.4067601,3.4448018
	-0.033756,0.185659 -0.1333363,0.295366 -0.3071798,0.330809 -0.389882,0.07933
	-0.7797641,0.170468 -1.1763974,0.214351 -1.2084656,0.136712 -2.4000533,0.0034
	-3.5815141,-0.261609 -0.035444,-0.0084 -0.070888,-0.02194 -0.1383997,-0.04388
	2.4051167,-2.80175 4.0254058,-6.0119477 5.1292278,-9.5006327 0.018566,0.00169 0.038819,0.00338
	0.057385,0.00506 z"/>
<path d="M 4.299601,1.5601515 C 4.4093081,1.5398978 4.4785079,1.5247076 4.54602,1.5145808
	5.0388579,1.445381 5.4473058,1.2023376 5.8371879,0.9086602 6.07348,0.72975328
	6.3148356,0.55422195 6.5680058,0.39725644 6.8414296,0.22678852 7.1536728,0.18121789
	7.4709794,0.1947203 c 0.1654045,0.005063 0.2092874,0.0573852 0.1519021,0.20084834
	-0.1282729,0.30886762 -0.089453,0.61098406 0,0.91816386 0.025317,0.087766 0.043883,0.1789069
	0.065824,0.2683604 0.067512,0.2869262 0.03882,0.3611894 -0.2396675,0.4725843 C
	6.3232746,2.4951933 5.2937159,2.294345 4.299601,1.5601515 Z"/>
</svg>
