<svg viewBox="0 0 17.008 17.008" fill="black" xmlns="http://www.w3.org/2000/svg">
<path d="M 0.20334896,10.278571 C 0.21552259,10.126401 0.22769621,9.9742304
	0.23834814,9.8205384 0.27334731,9.3579406 0.35704099,8.9044731 0.53051515,8.4723094
	0.64312119,8.1892726 0.78311789,7.9168877 0.91702777,7.6429811 0.94594013,7.582113
	0.99615634,7.5318968 1.038764,7.4755938 2.3215598,8.0614495 3.5008798,8.7690415
	4.3210779,9.9879258 3.648485,10.068576 2.981979,10.097488 2.3276466,10.28618 c
	0.1141278,0.14304 0.2145602,0.279993 0.3271662,0.407816 0.3956429,0.445859 0.8080244,0.876501
	1.2858393,1.235623 0.640637,0.480858 1.3193166,0.900848 2.0603861,1.211276 0.082172,0.035
	0.1689091,0.06543 0.2571678,0.07913 0.1734742,0.02739 0.3165143,-0.04565 0.441294,-0.159778
	0.1871695,-0.171953 0.2967321,-0.3926 0.3834692,-0.623899 0.1521703,-0.403251
	0.2343423,-0.824763 0.2891236,-1.249318 0.1095626,-0.88411 0.086737,-1.7712626
	0.091302,-2.6584156 0.00304,-0.6619409 0,-1.3238818 0.00152,-1.9858227 0,-0.031956 0,-0.065433
	0,-0.1095626 -0.1704308,0 -0.3317313,0.00152 -0.4930319,0 C 6.602111,6.4271403
	6.2323371,6.4256186 5.8625632,6.4088798 5.6069171,6.3982279 5.4349646,6.2293188
	5.4014871,5.99802 5.3604011,5.7195483 5.5293102,5.403034 5.9340833,5.403034 c 0.4778148,0
	0.9556296,-0.00913 1.4349661,-0.013695 0.027391,0 0.05326,0 0.092824,0 0.00152,-0.034999
	0.00457,-0.066955 0.00457,-0.097389 0,-0.3789041 -0.00152,-0.7578082 0.00152,-1.1367123
	0,-0.057825 -0.015217,-0.094346 -0.063911,-0.1263014 C 6.9840585,3.7550294 6.6903698,3.3806904
	6.535156,2.9043973 6.1516868,1.7281207 6.9018865,0.46358538 8.1131623,0.2368516
	9.3061776,0.01316123 10.436803,0.84096777 10.563104,2.0461567 c 0.08522,0.804981
	-0.237385,1.4395313 -0.8719355,1.9203895 -0.092824,0.07152 -0.1430401,0.1369533
	-0.1430401,0.2617329 -0.00152,0.3636871 -0.019782,0.7258525 -0.031956,1.0895395 0,0.019782
	0,0.041086 0,0.07152 0.038043,0 0.069998,0 0.1019541,0 0.4899885,0.00457 0.9799775,0.00761
	1.4699655,0.015217 0.308906,0.00457 0.461076,0.1506486 0.520423,0.4139033 0.05326,0.2343423
	-0.09282,0.4778148 -0.331732,0.5645519 -0.08826,0.031956 -0.187169,0.042608 -0.283037,0.044129
	-0.458032,0.00609 -0.919108,0.00457 -1.3786629,0.00761 -0.030434,0 -0.059346,0 -0.1019541,0
	0,0.1902129 0,0.374339 0,0.5584651 0.00304,0.8460669 -0.00457,1.6921339 0.013695,2.5382009
	0.010652,0.4975972 0.056303,0.9951942 0.1004325,1.4912692 0.039564,0.439772 0.1141277,0.874979
	0.2541244,1.294969 0.076085,0.228256 0.1658661,0.451946 0.3271671,0.637594 0.130865,0.15217
	0.283035,0.275428 0.497597,0.263255 0.08978,-0.0061 0.182604,-0.035 0.267819,-0.06848
	0.594986,-0.234342 1.145842,-0.550857 1.67083,-0.916065 0.601073,-0.418469 1.148886,-0.899327
	1.632788,-1.453227 0.136953,-0.158257 0.266298,-0.324123 0.404773,-0.496075 -0.651289,-0.191735
	-1.314752,-0.216082 -1.987344,-0.302819 0.02891,-0.045651 0.04565,-0.076085 0.06543,-0.1049976
	0.558465,-0.7699818 1.264535,-1.3725763 2.092342,-1.8321306 0.336296,-0.1856478
	0.684766,-0.3454267 1.027149,-0.5219442 0.08674,-0.045651 0.130866,-0.01826 0.178039,0.057825
	0.334774,0.5341178 0.531074,1.1184519 0.648245,1.73322 0.07609,0.3971645 0.08674,0.7988934
	0.09435,1.2021454 0.0061,0.321079 0.0015,0.64368 0.0015,0.96476 0,0.02891 -0.0061,0.05935
	-0.01217,0.109562 -0.0563,-0.03652 -0.103476,-0.06543 -0.147605,-0.09739 -0.372818,-0.26782
	-0.742591,-0.541726 -1.119973,-0.803459 -0.246516,-0.170431 -0.211518,-0.135432
	-0.267821,0.104997 -0.176517,0.756287 -0.461076,1.469966 -0.887152,2.122776 -0.524987,0.806503
	-1.208233,1.442575 -2.055821,1.902129 -0.655854,0.356079 -1.351272,0.617812 -2.042126,0.891719
	C 9.9909265,15.820611 9.7139765,15.936261 9.44007,16.056475 9.0642093,16.220819
	8.7553035,16.4719 8.5011791,16.806675 8.2075079,16.35321 7.7494752,16.126477
	7.2716604,15.930177 6.6888481,15.689748 6.0999489,15.467579 5.52018,15.222585
	4.7380245,14.890854 4.0152155,14.461733 3.4019691,13.862182 2.9363279,13.407193
	2.5848145,12.874597 2.2941692,12.294828 2.0293928,11.765275 1.8498318,11.208332
	1.7128785,10.636171 c -0.00609,-0.02282 -0.012174,-0.04565 -0.025869,-0.0913
	-0.4884667,0.349992 -0.96780325,0.693897 -1.45779168,1.043889 -0.00913,-0.05935
	-0.0182604,-0.10652 -0.025869,-0.155214 0,-0.384991 0,-0.769982 0,-1.154973 z M
	8.4798927,3.3091704 C 9.0687919,3.3122138 9.5116075,2.8800501 9.5207377,2.295716
	9.5268245,1.823988 9.1783545,1.265523 8.463154,1.2594362 7.9746873,1.254871 7.463395,1.7692067
	7.4588299,2.2774556 7.4527431,2.834399 8.0096864,3.36243 8.4798927,3.3091704 Z"/>
</svg>
